# xmcd
#
# Track frame offsets:
#	150
#	20075
#	34632
#	54184
#	72802
#	89550
#	107813
#	124195
#	142258
#	162648
#	179923
#	194713
#	211700
#	227577
#	243307
#	272265
#
# Disc length: 3642 seconds
#
# Revision: 1
# Processed by: cddbd v1.5.1PL2 Copyright (c) Steve Scherf et al.
# Submitted via: audiograbber 1.83.01
#
DISCID=ec0e3810
DTITLE=Sound Choice - SC8690
DYEAR=1900
DGENRE=
TTITLE0=Soggy Bottom Boys - I Am A Man Of Constant Sorrow
TTITLE1=O'Neal, Jamie - When I Think About Angels
TTITLE2=Paisley, Brad - Two People Fell In Love
TTITLE3=McCoy, Neal - Beatin' It In
TTITLE4=Cochran, Tammy - Angels In Waiting
TTITLE5=McGraw, Tim - Grown Men Don't Cry
TTITLE6=Jackson, Alan - When Somebody Loves You
TTITLE7=Byrd, Tracy and Chesnutt, Mark - A Good Way To Get On My Bad Side
TTITLE8=Strait, George - If You Can Do Anything Else
TTITLE9=Lynn, Loretta - I Can't Hear The Music
TTITLE10=Parton, Dolly - A Tender Lie
TTITLE11=Marshall Dyllon - You
TTITLE12=Wilkinsons - I Wanna Be That Girl
TTITLE13=Thompson, Cyndi - What I Really Meant To Say
TTITLE14=Yearwoos, Trisha - I Would've Loved You Anyway
TTITLE15=xx - Data Track
EXTD=
EXTT0=
EXTT1=
EXTT2=
EXTT3=
EXTT4=
EXTT5=
EXTT6=
EXTT7=
EXTT8=
EXTT9=
EXTT10=
EXTT11=
EXTT12=
EXTT13=
EXTT14=
EXTT15=
PLAYORDER=
